# xmcd
#
# Track frame offsets:
# 150
# 16899
# 35300
# 51239
# 67079
# 84637
# 100172
# 116660
# 130251
# 145213
# 158531
# 172589
# 185012
#
# Disc length: 2674 seconds
#
#
# Revision: 2
# Processed by: cddbd v1.5.2PL0 Copyright (c) Steve Scherf et al.
# Submitted via: FreeRIP 2.96 
#
DISCID=a70a700d
DTITLE=Louis Berube - Louis Berube
DYEAR=1900
DGENRE=Country
TTITLE0=Depuis Ce Jour (Paul Daraiche-Paul Daraiche)
TTITLE1=Un Dernier Baiser (Louis Berube-Louis Berube)
TTITLE2=Devenue Farouche (Louis Berube-Louis Berube)
TTITLE3=La Transcanadienne (Louis Berube-Louis Berube)
TTITLE4=Je T'aime (Louis Berube-Louis Berube)
TTITLE5=Mon P'tit Tresor (Louis Berube-Louis Berube)
TTITLE6=Tu M'as Trake (Louis Berube-Louis Berube)
TTITLE7=Par Chez Nous En Acadie (Paul Daraiche-Paul Daraiche)
TTITLE8=Amour Illegal (Louis Berube-Louis Berube)
TTITLE9=Encore En Break (Louis Berube-Louis Berube)
TTITLE10=Rendu Grand-Pere (Louis Berube-Louis Berube)
TTITLE11=T'en Souviens-Tu (Louis Berube-Louis Berube)
TTITLE12=Les Pompiers (Louis Berube-Louis Berube)
EXTD=
EXTT0=
EXTT1=
EXTT2=
EXTT3=
EXTT4=
EXTT5=
EXTT6=
EXTT7=
EXTT8=
EXTT9=
EXTT10=
EXTT11=
EXTT12=
PLAYORDER=
